<svg width="396" height="389" viewBox="0 0 396 389" fill="none" xmlns="http://www.w3.org/2000/svg">
<path d="M68.9402 369.684C75.8408 364.191 69.6781 345.96 56.3367 329.199C42.9952 312.437 27.2406 303.772 20.34 309.264C13.4394 314.757 18.1694 331.916 31.5108 348.677C44.8522 365.439 62.0396 375.176 68.9402 369.684Z" fill="white"/>
<path d="M68.9402 369.684C62.0396 375.176 44.8522 365.439 31.5108 348.677L26.7095 352.32C43.6535 373.442 65.9162 385.851 75.7471 378.141L68.9402 369.684Z" fill="white"/>
<path d="M56.3367 329.199C69.6781 345.96 75.8408 364.191 68.9402 369.684L75.7471 378.141L75.8154 378.087C85.6428 370.24 79.4513 345.91 62.4479 324.615C62.4393 324.604 62.4307 324.593 62.4221 324.582L56.3367 329.199Z" fill="white"/>
<path d="M62.4479 324.615C79.4513 345.91 85.6428 370.24 75.8154 378.087L75.7471 378.141L81.5445 385.343C93.3846 373.503 88.4752 345.364 67.4126 320.797L62.4221 324.582L62.4479 324.615Z" fill="white"/>
<path d="M20.4349 357.08C41.4976 381.648 67.7948 393.746 81.5445 385.343L75.7471 378.141C65.9162 385.851 43.6535 373.442 26.7095 352.32L20.4349 357.08Z" fill="white"/>
<path d="M31.5108 348.677C18.1694 331.916 13.4394 314.757 20.34 309.264L13.8471 301.194L8.89886 295.043C-4.11995 306.204 -0.627677 332.513 20.4349 357.08L26.7095 352.32L31.5108 348.677Z" fill="white"/>
<path d="M20.34 309.264C27.2406 303.772 42.9952 312.437 56.3367 329.199L62.4221 324.582C45.4225 303.309 23.6694 293.351 13.8471 301.194L20.34 309.264Z" fill="white"/>
<path d="M67.4126 320.797C46.35 296.229 22.2666 285.112 8.89886 295.043L13.8471 301.194C23.6694 293.351 45.4225 303.309 62.4221 324.582L67.4126 320.797Z" fill="white"/>
<path d="M29.1164 278.256L8.89886 295.043C22.2666 285.112 46.35 296.229 67.4126 320.797C88.4752 345.364 93.3846 373.503 81.5445 385.343L99.3442 370.506C103.645 357.817 102.831 344.929 98.7535 332.957C97.5917 329.546 96.1649 326.209 94.5159 322.972C88.772 311.697 80.3324 301.638 71.0072 293.885C68.4942 291.796 65.917 289.874 63.3108 288.141C51.3865 280.212 38.8574 276.236 29.1164 278.256Z" fill="white"/>
<path d="M63.3108 288.141C65.917 289.874 68.4942 291.796 71.0072 293.885C80.3324 301.638 88.772 311.697 94.5159 322.972L118.304 304.015C112.601 292.548 104.176 282.688 95.1048 275.072C92.2668 272.69 89.3656 270.527 86.4647 268.604L63.3108 288.141Z" fill="white"/>
<path d="M99.3442 370.506L123.729 350.178C124.081 348.771 124.384 347.372 124.638 345.982C125.702 340.169 125.934 334.51 125.476 329.05C125.057 324.055 124.06 319.226 122.596 314.596L98.7535 332.957C102.831 344.929 103.645 357.817 99.3442 370.506Z" fill="white"/>
<path d="M118.304 304.015L94.5159 322.972C96.1649 326.209 97.5917 329.546 98.7535 332.957L122.596 314.596C121.439 310.939 119.991 307.407 118.304 304.015Z" fill="white"/>
<path fill-rule="evenodd" clip-rule="evenodd" d="M51.0102 260.078L29.1164 278.256C38.8574 276.236 51.3865 280.212 63.3108 288.141L86.4647 268.604C72.0182 259.024 57.5814 255.378 51.0102 260.078ZM61.7189 268.604L51.0102 276.954L59.8377 280.861L69.3887 272.468L61.7189 268.604Z" fill="white"/>
<path d="M51.0102 276.954L61.7189 268.604L69.3887 272.468L59.8377 280.861L51.0102 276.954Z" fill="white"/>
<path d="M97.6118 221.384L51.0102 260.078C57.5814 255.378 72.0182 259.024 86.4647 268.604C89.3656 270.527 92.2668 272.69 95.1048 275.072L144.864 235.47C127.065 220.952 106.594 214.51 97.6118 221.384Z" fill="white"/>
<path fill-rule="evenodd" clip-rule="evenodd" d="M123.729 350.178L174.595 307.778C176.45 299.961 176.631 292.341 175.52 285.058C172.456 264.984 159.573 247.469 144.864 235.47L95.1048 275.072C104.176 282.688 112.601 292.548 118.304 304.015C119.991 307.407 121.439 310.939 122.596 314.596C124.06 319.226 125.057 324.055 125.476 329.05L128.733 326.445L132.592 323.361C132.242 320.721 131.623 317.981 130.602 315.447L150.283 300.542C150.606 301.752 151.002 303.425 151.375 305.317L153.895 306.33L151.851 307.964C152.511 312.009 152.911 316.488 152.309 319.499L132.628 334.983C132.971 332.705 133.234 328.201 132.592 323.361L128.733 326.445L125.476 329.05C125.934 334.51 125.702 340.169 124.638 345.982C124.384 347.372 124.081 348.771 123.729 350.178ZM115.552 285.781L135.088 270.152L143.481 283.176L123.656 298.805L115.552 285.781Z" fill="white"/>
<path d="M135.088 270.152L115.552 285.781L123.656 298.805L143.481 283.176L135.088 270.152Z" fill="white"/>
<path d="M150.283 300.542L130.602 315.447C131.623 317.981 132.242 320.721 132.592 323.361L135.812 320.787L142.491 315.447L148.546 310.607L151.851 307.964C151.703 307.053 151.541 306.163 151.375 305.317C151.002 303.425 150.606 301.752 150.283 300.542Z" fill="white"/>
<path d="M132.628 334.983L152.309 319.499C152.911 316.488 152.511 312.009 151.851 307.964L148.546 310.607L142.491 315.447L135.812 320.787L132.592 323.361C133.234 328.201 132.971 332.705 132.628 334.983Z" fill="white"/>
<path d="M174.595 307.778C178.066 307.909 180.497 303.228 182.076 297.792C184.61 270.987 169.219 246.44 150.862 230.697L144.864 235.47C159.573 247.469 172.456 264.984 175.52 285.058C176.631 292.341 176.45 299.961 174.595 307.778Z" fill="white"/>
<path d="M118.591 213.415C112.995 213.72 107.348 214.919 104.409 215.74L97.6118 221.384C106.594 214.51 127.065 220.952 144.864 235.47L150.862 230.697C140.121 221.486 128.366 215.288 118.591 213.415Z" fill="white"/>
<path d="M184.29 285.781C195.723 243.525 145.507 206.479 126.984 213.859C124.469 213.34 121.537 213.254 118.591 213.415C128.366 215.288 140.121 221.486 150.862 230.697C169.219 246.44 184.61 270.987 182.076 297.792C183.287 293.622 183.997 289.007 184.29 285.781Z" fill="white"/>
<path d="M131.47 210.241L126.984 213.859C145.507 206.479 195.723 243.525 184.29 285.781L188.632 282.308C203.248 247.432 152.164 201.703 131.47 210.241Z" fill="white"/>
<path fill-rule="evenodd" clip-rule="evenodd" d="M131.47 210.241C152.164 201.703 203.248 247.432 188.632 282.308L216.561 259.286L198.183 251.774V239.184L255.344 193.4C254.801 191.835 254.171 190.309 253.466 188.824C252.415 186.607 251.2 184.483 249.865 182.456C248.527 180.426 247.068 178.495 245.534 176.668C243.904 174.727 242.187 172.904 240.439 171.208C238.62 169.445 236.767 167.818 234.94 166.336C233.495 165.165 232.066 164.085 230.683 163.1C229.056 161.941 227.492 160.914 226.039 160.026C224.585 159.137 223.243 158.387 222.06 157.783C221.812 157.656 221.571 157.535 221.337 157.421L159.11 206.479V187.377L131.47 210.241ZM212.072 171.962C219.713 174.625 223.449 179.739 224.992 182.295L202.851 199.516C201.308 196.96 197.179 192.194 189.538 189.531L212.072 171.962Z" fill="white"/>
<path d="M224.992 182.295C223.449 179.739 219.713 174.625 212.072 171.962L189.538 189.531C197.179 192.194 201.308 196.96 202.851 199.516L224.992 182.295Z" fill="white"/>
<path d="M224.086 143.904L221.337 146.134V149.317L226.98 144.778C225.984 144.449 225.017 144.158 224.086 143.904Z" fill="white"/>
<path d="M226.98 144.778L221.337 149.317V153.369L230.683 146.134C229.413 145.625 228.175 145.174 226.98 144.778Z" fill="white"/>
<path d="M221.337 153.369V157.421C221.571 157.535 221.812 157.656 222.06 157.783L234.342 147.725C233.1 147.142 231.877 146.612 230.683 146.134L221.337 153.369Z" fill="white"/>
<path d="M234.342 147.725L222.06 157.783C223.243 158.387 224.585 159.137 226.039 160.026L238.557 149.878C237.879 149.503 237.203 149.144 236.531 148.8C235.796 148.423 235.066 148.065 234.342 147.725Z" fill="white"/>
<path d="M238.557 149.878L226.039 160.026C227.492 160.914 229.056 161.941 230.683 163.1L243.478 152.86C241.834 151.772 240.188 150.78 238.557 149.878Z" fill="white"/>
<path d="M243.478 152.86L230.683 163.1C232.066 164.085 233.495 165.165 234.94 166.336L247.964 156.084C246.481 154.928 244.98 153.854 243.478 152.86Z" fill="white"/>
<path d="M247.964 156.084L234.94 166.336C236.767 167.818 238.62 169.445 240.439 171.208L253.318 160.718C251.576 159.046 249.783 157.503 247.964 156.084Z" fill="white"/>
<path d="M253.318 160.718L240.439 171.208C242.187 172.904 243.904 174.727 245.534 176.668L258.529 166.336C256.867 164.32 255.12 162.449 253.318 160.718Z" fill="white"/>
<path d="M258.529 166.336L245.534 176.668C247.068 178.495 248.527 180.426 249.865 182.456L263.003 172.471C261.605 170.291 260.105 168.248 258.529 166.336Z" fill="white"/>
<path d="M263.003 172.471L249.865 182.456C251.2 184.483 252.415 186.607 253.466 188.824L266.586 178.839C265.49 176.598 264.29 174.477 263.003 172.471Z" fill="white"/>
<path d="M255.344 193.4L259.251 190.271V191.718L268.96 184.338C268.24 182.429 267.445 180.597 266.586 178.839L253.466 188.824C254.171 190.309 254.801 191.835 255.344 193.4Z" fill="white"/>
<path d="M268.96 184.338L259.251 191.718V199.388L270.884 190.271C270.322 188.216 269.678 186.239 268.96 184.338Z" fill="white"/>
<path d="M259.251 199.388V202.282L262.001 203.546L272.146 195.77C271.849 194.185 271.504 192.642 271.115 191.139C271.039 190.848 270.962 190.559 270.884 190.271L259.251 199.388Z" fill="white"/>
<path d="M272.146 195.77L262.001 203.546L266.198 205.476L272.826 200.111C272.639 198.631 272.411 197.184 272.146 195.77Z" fill="white"/>
<path d="M272.826 200.111L266.198 205.476L269.815 207.14L273.238 204.308C273.137 202.88 272.998 201.481 272.826 200.111Z" fill="white"/>
<path d="M273.433 208.804C273.408 207.274 273.343 205.776 273.238 204.308L269.815 207.14L273.433 208.804Z" fill="white"/>
<path fill-rule="evenodd" clip-rule="evenodd" d="M238.557 149.878C240.188 150.78 241.834 151.772 243.478 152.86C244.98 153.854 246.481 154.928 247.964 156.084C249.783 157.503 251.576 159.046 253.318 160.718C255.12 162.449 256.867 164.32 258.529 166.336C260.105 168.248 261.605 170.291 263.003 172.471C264.29 174.477 265.49 176.598 266.586 178.839C267.445 180.597 268.24 182.429 268.96 184.338C269.678 186.239 270.322 188.216 270.884 190.271C270.962 190.559 271.039 190.848 271.115 191.139L286.602 179.054L288.918 177.247C295.64 161.328 277.479 134.242 254.91 134.557L236.531 148.8C237.203 149.144 237.879 149.503 238.557 149.878ZM257.905 160.225C259.432 161.268 263.252 165.851 263.983 167.808L280.077 155.157C279.691 153.14 277.882 148.827 273.946 147.601L257.905 160.225Z" fill="white"/>
<path d="M263.983 167.808C263.252 165.851 259.432 161.268 257.905 160.225L273.946 147.601C277.882 148.827 279.691 153.14 280.077 155.157L263.983 167.808Z" fill="white"/>
<path fill-rule="evenodd" clip-rule="evenodd" d="M288.918 177.247L302.81 158.434C304.272 133.691 286.003 125.267 275.893 123.976C275.597 123.938 275.307 123.906 275.025 123.88L273.723 124.861L254.91 134.557C277.479 134.242 295.64 161.328 288.918 177.247ZM295.014 151.402C298.415 149.37 299.243 144.493 296.862 140.509C294.482 136.526 288.22 133.645 284.818 135.678C281.417 137.71 280.863 142.443 283.243 146.427C285.624 150.41 291.613 153.435 295.014 151.402Z" fill="white"/>
<path d="M302.81 158.434L313.808 149.751C321.623 145.121 307.007 110.39 286.602 115.165L275.025 123.88C275.307 123.906 275.597 123.938 275.893 123.976C286.003 125.267 304.272 133.691 302.81 158.434Z" fill="white"/>
<path d="M296.862 140.509C299.243 144.493 298.415 149.37 295.014 151.402C291.613 153.435 285.624 150.41 283.243 146.427C280.863 142.443 281.417 137.71 284.818 135.678C288.22 133.645 294.482 136.526 296.862 140.509Z" fill="white"/>
<path d="M71.9935 121.967L11.359 170.445L35.0919 180.72L96.1605 131.952L83.7152 126.81L80.3868 125.435L71.9935 121.967Z" fill="#95D1F3"/>
<path d="M114.684 135.714L96.1605 131.952L35.0919 180.72L54.628 185.061L114.684 135.714Z" fill="#95D1F3"/>
<path d="M131.47 140.056L114.684 135.714L54.628 185.061L70.6911 189.258L131.47 140.056Z" fill="#95D1F3"/>
<path d="M145.652 151.343L131.47 140.056L70.6911 189.258L85.1623 200.111L145.652 151.343Z" fill="#95D1F3"/>
<path d="M160.413 163.21L145.652 151.343L85.1623 200.111L100.212 212.267L160.413 163.21Z" fill="#95D1F3"/>
<path d="M126.984 213.859L131.47 210.241L159.11 187.377V184.338L164.743 166.249L160.413 163.21L100.212 212.267L104.409 215.74C107.348 214.919 112.995 213.72 118.591 213.415C121.537 213.254 124.469 213.34 126.984 213.859Z" fill="#95D1F3"/>
<path d="M159.11 206.479L221.337 157.421V153.369V149.317V146.134V143.239V136.872L159.11 184.338V187.377V206.479Z" fill="#95D1F3"/>
<path d="M221.337 136.872L228.428 111.981L166.635 160.171L164.743 166.249L159.11 184.338L221.337 136.872Z" fill="#95D1F3"/>
<path d="M158.242 141.648L166.635 160.171L228.428 111.981L219.6 91.8665L158.242 141.648Z" fill="#95D1F3"/>
<path d="M155.927 117.915L158.242 141.648L219.6 91.8665L217.285 69.436L155.927 117.915Z" fill="#95D1F3"/>
<path d="M159.689 94.3266L155.927 117.915L217.285 69.436L220.324 47.4397L159.689 94.3266Z" fill="#95D1F3"/>
<path d="M163.018 74.3563L159.689 94.3266L220.324 47.4397L225.099 25.7329L163.018 74.3563Z" fill="#95D1F3"/>
<path d="M158.532 51.6364L163.018 74.3563L225.099 25.7329L222.711 13.8664L220.324 2L158.532 51.6364Z" fill="#95D1F3"/>
<path d="M259.251 202.282L198.183 251.774L216.561 259.286L218.008 259.878L279.077 211.399L273.433 208.804L269.815 207.14L266.198 205.476L262.001 203.546L259.251 202.282Z" fill="#95D1F3"/>
<path d="M218.008 259.878L233.927 273.625L295.285 224.857L279.077 211.399L218.008 259.878Z" fill="#95D1F3"/>
<path d="M233.927 273.625L257.66 277.098L318.584 227.896L295.285 224.857L233.927 273.625Z" fill="#95D1F3"/>
<path d="M198.183 239.184V251.774L259.251 202.282V199.388V191.718V190.271L255.344 193.4L198.183 239.184Z" fill="#95D1F3"/>
<path d="M257.66 277.098L280.09 280.137L341.448 231.514L318.584 227.896L257.66 277.098Z" fill="#95D1F3"/>
<path d="M280.09 280.137L292.391 288.386C292.835 288.658 333.771 255.987 354.183 239.618L341.448 231.514L280.09 280.137Z" fill="#95D1F3"/>
<path d="M292.391 288.386L310.335 299.384L371.838 250.906L354.183 239.618C333.771 255.987 292.835 288.658 292.391 288.386Z" fill="#95D1F3"/>
<path d="M310.335 299.384L333.2 309.514L393.834 260.457L385.586 256.875L381.823 255.241L371.838 250.906L310.335 299.384Z" fill="#95D1F3"/>
<path d="M8.89886 295.043L8.46697 294.523L8.45886 294.53L8.89886 295.043ZM81.5445 385.343L81.897 385.92L81.9393 385.894L81.9774 385.863L81.5445 385.343ZM126.984 213.859L126.848 214.521L127.046 214.562L127.234 214.487L126.984 213.859ZM188.632 282.308L189.054 282.836L189.062 282.83L188.632 282.308ZM184.29 285.781L183.638 285.605L183.622 285.661L183.617 285.72L184.29 285.781ZM118.591 213.415L118.554 212.74L118.591 213.415ZM182.076 297.792L182.725 297.981L182.076 297.792ZM97.6118 221.384L97.18 220.864L97.18 220.864L97.6118 221.384ZM99.3442 370.506L99.777 371.025L99.777 371.025L99.3442 370.506ZM71.0072 293.885L71.4394 293.365L71.4394 293.365L71.0072 293.885ZM118.304 304.015L118.909 303.714L118.909 303.714L118.304 304.015ZM122.596 314.596L123.24 314.392L123.24 314.392L122.596 314.596ZM51.0102 276.954L50.5946 276.421L49.7042 277.115L50.7366 277.572L51.0102 276.954ZM61.7189 268.604L62.0231 268L61.6408 267.807L61.3032 268.071L61.7189 268.604ZM69.3887 272.468L69.8349 272.975L70.5871 272.314L69.6928 271.864L69.3887 272.468ZM59.8377 280.861L59.5641 281.479L59.9593 281.654L60.2839 281.369L59.8377 280.861ZM175.52 285.058L176.188 284.956L175.52 285.058ZM135.088 270.152L135.656 269.786L135.251 269.157L134.666 269.624L135.088 270.152ZM115.552 285.781L115.13 285.253L114.661 285.628L114.978 286.138L115.552 285.781ZM123.656 298.805L123.082 299.162L123.481 299.804L124.074 299.336L123.656 298.805ZM143.481 283.176L143.9 283.707L144.383 283.327L144.05 282.81L143.481 283.176ZM130.602 315.447L130.194 314.908L129.782 315.221L129.975 315.7L130.602 315.447ZM150.283 300.542L150.936 300.367L150.676 299.396L149.875 300.003L150.283 300.542ZM152.309 319.499L152.727 320.031L152.923 319.876L152.972 319.632L152.309 319.499ZM132.628 334.983L131.96 334.883L131.705 336.57L133.046 335.515L132.628 334.983ZM122.596 331.352L123.018 331.88L123.018 331.88L122.596 331.352ZM142.491 315.447L142.913 315.975L142.913 315.975L142.491 315.447ZM153.895 306.33L154.318 306.858L154.318 306.858L153.895 306.33ZM158.966 302.277L159.388 302.805L159.388 302.805L158.966 302.277ZM124.638 345.982L125.303 346.103L125.303 346.103L124.638 345.982ZM11.359 170.445L10.9368 169.917L10.059 170.619L11.0904 171.066L11.359 170.445ZM71.9935 121.967L72.2516 121.342L71.8829 121.19L71.5714 121.439L71.9935 121.967ZM114.684 135.714L114.853 135.06L114.836 135.055L114.818 135.052L114.684 135.714ZM131.47 140.056L131.891 139.527L131.779 139.437L131.64 139.401L131.47 140.056ZM145.652 151.343L146.076 150.816L146.073 150.814L145.652 151.343ZM35.0919 180.72L34.8233 181.34L34.8824 181.366L34.9452 181.38L35.0919 180.72ZM80.3868 121.967L79.9389 121.46L79.7108 121.662V121.967H80.3868ZM83.7152 126.81L83.4571 127.435L83.4571 127.435L83.7152 126.81ZM159.11 206.479H158.434V207.873L159.529 207.01L159.11 206.479ZM159.11 184.338L158.465 184.137L158.434 184.235V184.338H159.11ZM158.242 141.648L157.569 141.713L157.58 141.825L157.626 141.927L158.242 141.648ZM155.927 117.915L155.259 117.808L155.245 117.894L155.254 117.98L155.927 117.915ZM159.689 94.3266L159.022 94.2154L159.022 94.2201L159.689 94.3266ZM158.532 51.6364L158.108 51.1094L157.789 51.3657L157.868 51.7673L158.532 51.6364ZM220.324 2L220.986 1.86665L220.767 0.776721L219.9 1.47297L220.324 2ZM225.099 25.7329L225.759 25.8781L225.79 25.7391L225.762 25.5995L225.099 25.7329ZM228.428 111.981L229.078 112.167L229.144 111.933L229.047 111.71L228.428 111.981ZM226.112 13.8664V14.5424H226.363L226.553 14.3787L226.112 13.8664ZM164.743 166.249L165.388 166.45L165.388 166.45L164.743 166.249ZM189.538 189.531L189.122 188.998L188.144 189.761L189.316 190.169L189.538 189.531ZM202.851 199.516L202.273 199.866L202.666 200.517L203.267 200.05L202.851 199.516ZM224.992 182.295L225.408 182.829L225.882 182.46L225.571 181.946L224.992 182.295ZM212.072 171.962L212.295 171.323L211.947 171.202L211.657 171.429L212.072 171.962ZM198.183 239.184L197.76 238.656L197.507 238.859V239.184H198.183ZM198.183 251.774H197.507V252.228L197.927 252.4L198.183 251.774ZM233.927 273.625L233.485 274.137L233.634 274.266L233.829 274.294L233.927 273.625ZM257.66 277.098L257.562 277.767L257.569 277.768L257.66 277.098ZM292.391 288.386L292.014 288.948L292.026 288.955L292.037 288.962L292.391 288.386ZM310.335 299.384L309.982 299.961L310.02 299.984L310.061 300.002L310.335 299.384ZM333.2 309.514L332.926 310.132L333.304 310.3L333.625 310.04L333.2 309.514ZM393.834 260.457L394.259 260.982L395.126 260.281L394.104 259.836L393.834 260.457ZM354.183 239.618L354.547 239.048L354.546 239.048L354.183 239.618ZM341.448 231.514L341.811 230.944L341.693 230.868L341.554 230.846L341.448 231.514ZM318.584 227.896L318.689 227.229L318.68 227.227L318.671 227.226L318.584 227.896ZM279.077 211.399L279.509 210.879L279.44 210.822L279.36 210.785L279.077 211.399ZM259.251 190.271H259.927V188.863L258.829 189.743L259.251 190.271ZM381.823 252.353L381.386 251.837L381.147 252.039V252.353H381.823ZM381.823 255.241L381.554 255.861L381.554 255.861L381.823 255.241ZM385.586 256.875L385.316 257.495L385.316 257.495L385.586 256.875ZM216.561 259.286L216.817 258.66L216.817 258.66L216.561 259.286ZM255.344 193.4L255.767 193.928L255.767 193.928L255.344 193.4ZM226.98 144.778L227.193 144.137L226.98 144.778ZM230.683 146.134L230.935 145.506L230.683 146.134ZM222.06 157.783L221.753 158.385L222.06 157.783ZM243.478 152.86L243.851 152.296L243.851 152.296L243.478 152.86ZM230.683 163.1L230.291 163.651L230.683 163.1ZM234.94 166.336L234.514 166.861L234.514 166.861L234.94 166.336ZM253.318 160.718L253.786 160.231L253.786 160.231L253.318 160.718ZM245.534 176.668L245.016 177.103L245.016 177.103L245.534 176.668ZM263.003 172.471L263.572 172.106L263.572 172.106L263.003 172.471ZM249.865 182.456L249.3 182.828L249.865 182.456ZM266.586 178.839L267.193 178.542L267.193 178.542L266.586 178.839ZM272.826 200.111L273.496 200.027L272.826 200.111ZM266.198 205.476L265.915 206.091L265.915 206.091L266.198 205.476ZM273.238 204.308L273.913 204.26L273.238 204.308ZM269.815 207.14L269.533 207.754L269.533 207.754L269.815 207.14ZM288.918 177.247L289.333 177.78L289.406 177.723L289.461 177.648L288.918 177.247ZM313.808 149.751L313.464 149.17L313.425 149.193L313.389 149.221L313.808 149.751ZM286.602 115.165L286.448 114.507L286.309 114.539L286.196 114.625L286.602 115.165ZM273.723 124.861L274.032 125.462L274.083 125.436L274.129 125.401L273.723 124.861ZM254.91 134.557L254.6 133.956L254.545 133.984L254.496 134.022L254.91 134.557ZM286.602 179.054L287.018 179.587L287.018 179.587L286.602 179.054ZM275.893 123.976L275.979 123.305L275.893 123.976ZM257.905 160.225L257.487 159.693L256.762 160.263L257.523 160.783L257.905 160.225ZM263.983 167.808L263.349 168.045L263.673 168.912L264.4 168.34L263.983 167.808ZM271.552 183.469L270.88 183.547L271.021 184.76L271.974 183.997L271.552 183.469ZM286.023 171.892L286.446 172.42L286.74 172.185L286.694 171.811L286.023 171.892ZM75.8154 378.087L76.2372 378.615L75.8154 378.087ZM13.8471 301.194L13.3203 301.617L13.3203 301.617L13.8471 301.194ZM273.946 147.601L274.147 146.955L273.807 146.849L273.528 147.069L273.946 147.601ZM280.077 155.157L280.494 155.688L280.818 155.434L280.741 155.03L280.077 155.157ZM127.409 214.385L131.895 210.767L131.046 209.715L126.56 213.333L127.409 214.385ZM131.728 210.866C136.63 208.844 143.476 209.999 150.892 213.603C158.275 217.192 166.077 223.142 172.794 230.452C186.269 245.116 195.159 264.984 188.008 282.047L189.255 282.569C196.721 264.756 187.376 244.322 173.79 229.537C166.977 222.123 159.041 216.061 151.483 212.387C143.957 208.729 136.658 207.37 131.212 209.616L131.728 210.866ZM188.209 281.78L183.868 285.253L184.713 286.309L189.054 282.836L188.209 281.78ZM127.234 214.487C131.612 212.743 138.013 213.59 145.091 216.661C152.137 219.719 159.723 224.926 166.389 231.681C179.733 245.205 189.268 264.794 183.638 285.605L184.943 285.958C190.745 264.513 180.888 244.45 167.352 230.732C160.578 223.866 152.851 218.554 145.63 215.421C138.441 212.302 131.618 211.285 126.734 213.231L127.234 214.487ZM104.591 216.391C107.494 215.58 113.091 214.392 118.628 214.09L118.554 212.74C112.898 213.049 107.202 214.258 104.227 215.089L104.591 216.391ZM118.628 214.09C121.543 213.93 124.411 214.018 126.848 214.521L127.121 213.197C124.526 212.662 121.53 212.577 118.554 212.74L118.628 214.09ZM183.617 285.72C183.327 288.914 182.623 293.485 181.427 297.604L182.725 297.981C183.952 293.758 184.668 289.099 184.964 285.842L183.617 285.72ZM181.427 297.604C180.645 300.295 179.666 302.746 178.485 304.494C177.294 306.256 176.005 307.154 174.62 307.102L174.569 308.453C176.656 308.532 178.318 307.155 179.605 305.251C180.902 303.332 181.928 300.725 182.725 297.981L181.427 297.604ZM98.0436 221.904L104.841 216.26L103.977 215.22L97.18 220.864L98.0436 221.904ZM9.3307 295.563L29.5482 278.776L28.6845 277.736L8.46702 294.523L9.3307 295.563ZM98.9113 369.987L81.1117 384.824L81.9774 385.863L99.777 371.025L98.9113 369.987ZM29.5482 278.776L51.4421 260.598L50.5784 259.558L28.6845 277.736L29.5482 278.776ZM51.4421 260.598L98.0436 221.904L97.18 220.864L50.5784 259.558L51.4421 260.598ZM174.162 307.258L123.297 349.659L124.162 350.698L175.027 308.297L174.162 307.258ZM123.297 349.659L98.9113 369.987L99.777 371.025L124.162 350.698L123.297 349.659ZM55.6616 308L71.4485 294.397L70.5659 293.373L54.7791 306.976L55.6616 308ZM29.2537 278.918C38.7358 276.951 51.0745 280.816 62.9365 288.704L63.6851 287.578C51.6985 279.608 38.9791 275.52 28.9791 277.594L29.2537 278.918ZM62.9365 288.704C65.522 290.423 68.08 292.331 70.575 294.405L71.4394 293.365C68.9085 291.261 66.3119 289.325 63.6851 287.578L62.9365 288.704ZM51.4035 260.628C54.4432 258.454 59.4445 258.135 65.624 259.643C71.7666 261.141 78.9158 264.409 86.0911 269.167L86.8383 268.04C79.5672 263.219 72.2747 259.874 65.9445 258.329C59.6511 256.794 54.1485 257.002 50.617 259.528L51.4035 260.628ZM63.7467 288.658L86.9007 269.12L86.0288 268.087L62.8748 287.624L63.7467 288.658ZM70.575 294.405C79.8371 302.105 88.2155 312.094 93.9136 323.279L95.1182 322.665C89.3284 311.3 80.8277 301.171 71.4394 293.365L70.575 294.405ZM117.883 303.486L94.0946 322.444L94.9372 323.501L118.725 304.544L117.883 303.486ZM117.699 304.316C119.371 307.678 120.806 311.179 121.951 314.8L123.24 314.392C122.073 310.7 120.611 307.135 118.909 303.714L117.699 304.316ZM93.9136 323.279C95.5489 326.489 96.9628 329.796 98.1136 333.175L99.3934 332.74C98.2205 329.296 96.7809 325.929 95.1182 322.665L93.9136 323.279ZM98.1136 333.175C102.151 345.032 102.949 357.764 98.7039 370.289L99.9844 370.723C104.341 357.869 103.51 344.827 99.3934 332.74L98.1136 333.175ZM122.183 314.06L98.341 332.422L99.1659 333.493L123.008 315.131L122.183 314.06ZM51.4259 277.487L62.1346 269.137L61.3032 268.071L50.5946 276.421L51.4259 277.487ZM61.4148 269.207L69.0845 273.071L69.6928 271.864L62.0231 268L61.4148 269.207ZM68.9425 271.96L59.3914 280.353L60.2839 281.369L69.8349 272.975L68.9425 271.96ZM60.1113 280.243L51.2839 276.336L50.7366 277.572L59.5641 281.479L60.1113 280.243ZM174.851 285.16C175.95 292.361 175.771 299.894 173.937 307.621L175.252 307.934C177.129 300.029 177.312 292.321 176.188 284.956L174.851 285.16ZM163.292 295.573L175.939 285.588L175.101 284.527L162.454 294.512L163.292 295.573ZM118.464 214.078C128.088 215.923 139.74 222.049 150.422 231.21L151.302 230.184C140.503 220.923 128.643 214.653 118.718 212.751L118.464 214.078ZM150.422 231.21C168.684 246.873 183.909 271.223 181.403 297.729L182.749 297.856C185.311 270.752 169.754 246.008 151.302 230.184L150.422 231.21ZM86.0911 269.167C88.9706 271.076 91.8515 273.224 94.6701 275.59L95.5394 274.555C92.6821 272.156 89.7605 269.978 86.8383 268.04L86.0911 269.167ZM94.6701 275.59C103.683 283.156 112.044 292.945 117.699 304.316L118.909 303.714C113.159 292.15 104.669 282.219 95.5394 274.555L94.6701 275.59ZM134.666 269.624L115.13 285.253L115.974 286.309L135.51 270.68L134.666 269.624ZM114.978 286.138L123.082 299.162L124.23 298.448L116.126 285.424L114.978 286.138ZM124.074 299.336L143.9 283.707L143.063 282.646L123.237 298.274L124.074 299.336ZM144.05 282.81L135.656 269.786L134.52 270.518L142.913 283.543L144.05 282.81ZM131.01 315.986L150.691 301.081L149.875 300.003L130.194 314.908L131.01 315.986ZM151.891 318.968L132.21 334.452L133.046 335.515L152.727 320.031L151.891 318.968ZM113.972 337.38L110.933 339.81L111.777 340.866L114.816 338.436L113.972 337.38ZM114.713 337.312L111.674 335.69L111.037 336.882L114.076 338.505L114.713 337.312ZM122.174 330.824L113.972 337.38L114.816 338.436L123.018 331.88L122.174 330.824ZM118.577 330.088L122.292 331.956L122.899 330.748L119.184 328.88L118.577 330.088ZM125.946 325.741L128.418 327.044L129.048 325.847L126.576 324.545L125.946 325.741ZM133.168 320.09L135.483 321.378L136.14 320.196L133.825 318.908L133.168 320.09ZM142.069 314.919L135.39 320.259L136.234 321.315L142.913 315.975L142.069 314.919ZM139.007 314.616L142.213 316.063L142.769 314.831L139.563 313.384L139.007 314.616ZM148.124 310.079L142.069 314.919L142.913 315.975L148.968 311.135L148.124 310.079ZM145.204 309.684L148.243 311.211L148.85 310.002L145.811 308.476L145.204 309.684ZM149.63 300.717C149.949 301.911 150.342 303.569 150.711 305.448L152.038 305.187C151.663 303.28 151.264 301.592 150.936 300.367L149.63 300.717ZM151.123 305.945L153.643 306.958L154.148 305.703L151.627 304.69L151.123 305.945ZM160.714 300.014L158.544 301.749L159.388 302.805L161.558 301.07L160.714 300.014ZM158.544 301.749L153.473 305.802L154.318 306.858L159.388 302.805L158.544 301.749ZM155.686 301.753L158.725 302.909L159.206 301.645L156.167 300.489L155.686 301.753ZM123.973 345.86C123.721 347.236 123.422 348.621 123.074 350.014L124.385 350.342C124.741 348.921 125.046 347.508 125.303 346.103L123.973 345.86ZM11.7811 170.973L72.4156 122.495L71.5714 121.439L10.9368 169.917L11.7811 170.973ZM96.0259 132.614L114.549 136.377L114.818 135.052L96.295 131.289L96.0259 132.614ZM114.514 136.369L131.301 140.71L131.64 139.401L114.853 135.06L114.514 136.369ZM131.049 140.585L145.231 151.872L146.073 150.814L131.891 139.527L131.049 140.585ZM145.229 151.87L159.989 163.737L160.836 162.683L146.076 150.816L145.229 151.87ZM11.0904 171.066L34.8233 181.34L35.3604 180.1L11.6275 169.825L11.0904 171.066ZM34.9452 181.38L54.4814 185.721L54.7747 184.401L35.2385 180.06L34.9452 181.38ZM54.4572 185.715L70.5202 189.912L70.862 188.604L54.7989 184.407L54.4572 185.715ZM70.2855 189.799L84.7567 200.652L85.5679 199.571L71.0967 188.717L70.2855 189.799ZM84.7376 200.637L99.7877 212.793L100.637 211.741L85.5871 199.586L84.7376 200.637ZM99.7814 212.788L103.978 216.261L104.84 215.22L100.643 211.746L99.7814 212.788ZM100.639 212.791L160.84 163.734L159.986 162.686L99.7854 211.743L100.639 212.791ZM145.228 150.817L84.738 199.585L85.5866 200.638L146.076 151.87L145.228 150.817ZM35.5137 181.248L96.5823 132.48L95.7386 131.424L34.67 180.192L35.5137 181.248ZM114.254 135.192L54.1989 184.539L55.0572 185.584L115.113 136.237L114.254 135.192ZM71.1165 189.783L131.896 140.581L131.045 139.53L70.2658 188.733L71.1165 189.783ZM83.7014 118.132L79.9389 121.46L80.8347 122.473L84.5972 119.145L83.7014 118.132ZM71.7354 122.591L80.1287 126.059L80.645 124.81L72.2516 121.342L71.7354 122.591ZM79.7108 121.967V125.435H81.0628V121.967H79.7108ZM80.1287 126.059L83.4571 127.435L83.9734 126.185L80.645 124.81L80.1287 126.059ZM83.4571 127.435L95.9023 132.577L96.4186 131.327L83.9734 126.185L83.4571 127.435ZM84.077 127.381L86.2477 126.006L85.5241 124.864L83.3534 126.239L84.077 127.381ZM167.251 159.892L158.858 141.369L157.626 141.927L166.02 160.45L167.251 159.892ZM158.915 141.582L156.599 117.849L155.254 117.98L157.569 141.713L158.915 141.582ZM156.594 118.021L160.357 94.4331L159.022 94.2201L155.259 117.808L156.594 118.021ZM160.356 94.4377L163.684 74.4674L162.351 74.2451L159.022 94.2154L160.356 94.4377ZM163.681 74.2253L159.195 51.5054L157.868 51.7673L162.354 74.4872L163.681 74.2253ZM158.955 52.1634L220.747 2.52703L219.9 1.47297L158.108 51.1094L158.955 52.1634ZM224.439 25.5876L219.663 47.2945L220.984 47.585L225.759 25.8781L224.439 25.5876ZM219.654 47.3472L216.615 69.3435L217.954 69.5285L220.993 47.5322L219.654 47.3472ZM216.612 69.5054L218.928 91.9359L220.273 91.797L217.957 69.3666L216.612 69.5054ZM218.981 92.1381L227.809 112.253L229.047 111.71L220.219 91.5948L218.981 92.1381ZM227.777 111.796L220.687 136.687L221.987 137.057L229.078 112.167L227.777 111.796ZM220.918 156.89L158.692 205.948L159.529 207.01L221.755 157.952L220.918 156.89ZM159.52 184.875L221.747 137.41L220.927 136.335L158.7 183.8L159.52 184.875ZM228.012 111.448L166.22 159.638L167.051 160.704L228.843 112.515L228.012 111.448ZM158.668 142.173L220.026 92.3914L219.174 91.3415L157.816 141.123L158.668 142.173ZM216.866 68.9056L155.508 117.384L156.346 118.445L217.704 69.9664L216.866 68.9056ZM160.103 94.8613L220.737 47.9745L219.91 46.9049L159.276 93.7918L160.103 94.8613ZM224.682 25.2006L162.601 73.8241L163.434 74.8885L225.516 26.2651L224.682 25.2006ZM219.661 2.13335L222.049 13.9998L223.374 13.7331L220.986 1.86665L219.661 2.13335ZM222.049 13.9998L224.436 25.8662L225.762 25.5995L223.374 13.7331L222.049 13.9998ZM222.711 14.5424H226.112V13.1904H222.711V14.5424ZM226.553 14.3787L231.763 9.8926L230.881 8.86808L225.671 13.3542L226.553 14.3787ZM159.756 184.539L165.388 166.45L164.097 166.048L158.465 184.137L159.756 184.539ZM165.388 166.45L167.281 160.372L165.99 159.97L164.097 166.048L165.388 166.45ZM160.024 163.763L164.355 166.802L165.131 165.695L160.801 162.656L160.024 163.763ZM159.786 206.479V187.377H158.434V206.479H159.786ZM159.786 187.377V184.338H158.434V187.377H159.786ZM131.901 210.762L159.541 187.898L158.679 186.856L131.039 209.72L131.901 210.762ZM225.571 181.946C223.982 179.314 220.139 174.057 212.295 171.323L211.85 172.6C219.287 175.192 222.916 180.164 224.414 182.645L225.571 181.946ZM211.657 171.429L189.122 188.998L189.954 190.064L212.488 172.495L211.657 171.429ZM197.507 239.184V251.774H198.859V239.184H197.507ZM217.566 260.389L233.485 274.137L234.369 273.114L218.45 259.366L217.566 260.389ZM233.829 274.294L257.562 277.767L257.757 276.43L234.025 272.956L233.829 274.294ZM257.569 277.768L279.999 280.807L280.181 279.468L257.75 276.429L257.569 277.768ZM279.714 280.699L292.014 288.948L292.767 287.825L280.467 279.576L279.714 280.699ZM292.037 288.962L309.982 299.961L310.688 298.808L292.744 287.81L292.037 288.962ZM310.061 300.002L332.926 310.132L333.473 308.896L310.609 298.766L310.061 300.002ZM333.625 310.04L394.259 260.982L393.409 259.931L332.774 308.989L333.625 310.04ZM372.202 250.336L354.547 239.048L353.819 240.187L371.474 251.475L372.202 250.336ZM354.546 239.048L341.811 230.944L341.085 232.084L353.82 240.188L354.546 239.048ZM341.554 230.846L318.689 227.229L318.478 228.564L341.343 232.182L341.554 230.846ZM318.671 227.226L295.372 224.187L295.197 225.528L318.496 228.567L318.671 227.226ZM295.717 224.337L279.509 210.879L278.645 211.919L294.853 225.377L295.717 224.337ZM198.608 252.299L259.677 202.807L258.826 201.757L197.757 251.249L198.608 252.299ZM278.657 210.87L217.588 259.348L218.429 260.407L279.497 211.928L278.657 210.87ZM234.347 274.155L295.706 225.386L294.864 224.328L233.506 273.096L234.347 274.155ZM318.159 227.37L257.235 276.573L258.084 277.624L319.008 228.422L318.159 227.37ZM341.028 230.984L279.67 279.608L280.51 280.667L341.868 232.044L341.028 230.984ZM292.037 288.962C292.178 289.049 292.313 289.062 292.384 289.064C292.459 289.065 292.52 289.054 292.556 289.046C292.626 289.03 292.683 289.007 292.713 288.994C292.778 288.965 292.842 288.929 292.895 288.897C293.007 288.831 293.151 288.735 293.319 288.619C293.658 288.383 294.139 288.032 294.741 287.581C295.948 286.678 297.667 285.357 299.778 283.717C303.999 280.434 309.798 275.863 316.219 270.772C329.061 260.591 344.399 248.33 354.606 240.145L353.76 239.091C343.554 247.275 328.219 259.534 315.379 269.713C308.959 274.803 303.164 279.371 298.948 282.649C296.839 284.289 295.128 285.603 293.931 286.499C293.332 286.947 292.867 287.286 292.548 287.508C292.387 287.619 292.274 287.694 292.203 287.736C292.165 287.759 292.157 287.761 292.169 287.756C292.172 287.755 292.207 287.739 292.261 287.727C292.288 287.721 292.342 287.71 292.412 287.712C292.477 287.713 292.607 287.726 292.744 287.81L292.037 288.962ZM371.419 250.375L309.917 298.853L310.754 299.915L372.256 251.436L371.419 250.375ZM385.149 248.653L381.386 251.837L382.26 252.869L386.022 249.685L385.149 248.653ZM382.092 254.621L372.107 250.285L371.569 251.526L381.554 255.861L382.092 254.621ZM381.147 252.353V255.241H382.499V252.353H381.147ZM394.104 259.836L385.855 256.255L385.316 257.495L393.565 261.077L394.104 259.836ZM385.855 256.255L382.092 254.621L381.554 255.861L385.316 257.495L385.855 256.255ZM387.187 254.715L385.161 256.349L386.01 257.401L388.036 255.767L387.187 254.715ZM197.927 252.4L216.305 259.912L216.817 258.66L198.438 251.148L197.927 252.4ZM216.305 259.912L217.752 260.503L218.264 259.252L216.817 258.66L216.305 259.912ZM189.062 282.83L216.991 259.808L216.131 258.764L188.202 281.786L189.062 282.83ZM258.829 189.743L254.922 192.873L255.767 193.928L259.674 190.799L258.829 189.743ZM254.922 192.873L197.76 238.656L198.605 239.711L255.767 193.928L254.922 192.873ZM220.661 136.872V143.239H222.013V136.872H220.661ZM279.36 210.785L273.716 208.189L273.151 209.418L278.795 212.013L279.36 210.785ZM221.198 143.901C222.058 144.081 222.964 144.299 223.909 144.557L224.264 143.252C223.294 142.988 222.363 142.764 221.475 142.578L221.198 143.901ZM220.661 143.239V146.134H222.013V143.239H220.661ZM223.66 143.379L220.911 145.609L221.762 146.659L224.512 144.429L223.66 143.379ZM223.909 144.557C224.827 144.807 225.782 145.094 226.768 145.42L227.193 144.137C226.185 143.803 225.206 143.509 224.264 143.252L223.909 144.557ZM220.661 146.134V149.317H222.013V146.134H220.661ZM226.557 144.252L220.913 148.791L221.76 149.844L227.404 145.305L226.557 144.252ZM226.768 145.42C227.95 145.811 229.174 146.257 230.432 146.761L230.935 145.506C229.652 144.992 228.401 144.536 227.193 144.137L226.768 145.42ZM220.661 149.317V153.369H222.013V149.317H220.661ZM220.661 153.369V157.421H222.013V153.369H220.661ZM230.269 145.599L220.923 152.835L221.751 153.904L231.097 146.668L230.269 145.599ZM230.432 146.761C231.614 147.235 232.824 147.76 234.055 148.337L234.629 147.114C233.375 146.525 232.141 145.99 230.935 145.506L230.432 146.761ZM221.04 158.029C221.27 158.141 221.508 158.259 221.753 158.385L222.368 157.181C222.116 157.052 221.871 156.929 221.633 156.814L221.04 158.029ZM233.914 147.202L221.632 157.26L222.489 158.306L234.77 148.249L233.914 147.202ZM221.753 158.385C222.918 158.98 224.246 159.722 225.687 160.603L226.392 159.449C224.924 158.552 223.567 157.793 222.368 157.181L221.753 158.385ZM226.465 160.551L238.983 150.403L238.132 149.353L225.614 159.501L226.465 160.551ZM238.23 150.47C239.846 151.363 241.477 152.346 243.105 153.423L243.851 152.296C242.192 151.198 240.53 150.196 238.885 149.287L238.23 150.47ZM225.687 160.603C227.126 161.483 228.677 162.501 230.291 163.651L231.075 162.549C229.435 161.382 227.858 160.346 226.392 159.449L225.687 160.603ZM243.055 152.332L230.261 162.572L231.106 163.628L243.9 153.387L243.055 152.332ZM230.291 163.651C231.663 164.628 233.081 165.699 234.514 166.861L235.365 165.811C233.909 164.631 232.47 163.542 231.075 162.549L230.291 163.651ZM243.105 153.423C244.593 154.408 246.079 155.472 247.548 156.618L248.379 155.551C246.882 154.384 245.368 153.3 243.851 152.296L243.105 153.423ZM235.358 166.867L248.382 156.616L247.546 155.553L234.522 165.805L235.358 166.867ZM247.548 156.618C249.35 158.022 251.126 159.55 252.85 161.206L253.786 160.231C252.027 158.541 250.216 156.983 248.379 155.551L247.548 156.618ZM234.514 166.861C236.327 168.331 238.165 169.945 239.968 171.694L240.909 170.723C239.076 168.944 237.207 167.304 235.365 165.811L234.514 166.861ZM252.891 160.194L240.012 170.684L240.866 171.732L253.745 161.243L252.891 160.194ZM239.968 171.694C241.702 173.375 243.402 175.181 245.016 177.103L246.052 176.233C244.405 174.273 242.673 172.434 240.909 170.723L239.968 171.694ZM252.85 161.206C254.634 162.92 256.363 164.771 258.007 166.766L259.051 165.906C257.372 163.869 255.607 161.979 253.786 160.231L252.85 161.206ZM245.955 177.197L258.95 166.865L258.108 165.807L245.113 176.139L245.955 177.197ZM258.007 166.766C259.567 168.658 261.051 170.68 262.434 172.836L263.572 172.106C262.159 169.903 260.643 167.838 259.051 165.906L258.007 166.766ZM245.016 177.103C246.536 178.911 247.978 180.822 249.3 182.828L250.429 182.085C249.076 180.03 247.601 178.078 246.052 176.233L245.016 177.103ZM262.594 171.933L249.456 181.918L250.274 182.995L263.412 173.01L262.594 171.933ZM249.3 182.828C250.62 184.831 251.819 186.928 252.856 189.113L254.077 188.534C253.012 186.287 251.78 184.135 250.429 182.085L249.3 182.828ZM252.856 189.113C253.55 190.578 254.171 192.081 254.706 193.622L255.983 193.179C255.431 191.589 254.791 190.04 254.077 188.534L252.856 189.113ZM262.434 172.836C263.707 174.82 264.895 176.919 265.978 179.136L267.193 178.542C266.086 176.277 264.872 174.133 263.572 172.106L262.434 172.836ZM253.876 189.362L266.995 179.377L266.176 178.301L253.057 188.286L253.876 189.362ZM265.978 179.136C266.828 180.875 267.615 182.688 268.328 184.577L269.593 184.099C268.865 182.171 268.062 180.319 267.193 178.542L265.978 179.136ZM259.927 191.718V190.271H258.575V191.718H259.927ZM268.551 183.8L258.842 191.18L259.66 192.256L269.369 184.876L268.551 183.8ZM268.328 184.577C269.038 186.458 269.676 188.415 270.232 190.449L271.536 190.093C270.969 188.018 270.318 186.02 269.593 184.099L268.328 184.577ZM259.927 202.282V199.388H258.575V202.282H259.927ZM259.927 199.388V191.718H258.575V199.388H259.927ZM270.467 189.739L258.834 198.856L259.668 199.92L271.301 190.803L270.467 189.739ZM262.283 202.932L259.534 201.668L258.969 202.896L261.719 204.161L262.283 202.932ZM271.735 195.234L261.59 203.01L262.412 204.083L272.557 196.307L271.735 195.234ZM271.482 195.895C271.745 197.295 271.97 198.729 272.155 200.196L273.496 200.027C273.308 198.533 273.078 197.073 272.811 195.645L271.482 195.895ZM266.48 204.862L262.283 202.932L261.719 204.161L265.915 206.091L266.48 204.862ZM272.4 199.586L265.772 204.951L266.623 206.002L273.251 200.637L272.4 199.586ZM272.155 200.196C272.326 201.554 272.463 202.94 272.564 204.356L273.913 204.26C273.81 202.82 273.671 201.409 273.496 200.027L272.155 200.196ZM272.564 204.356C272.668 205.811 272.733 207.297 272.757 208.815L274.109 208.793C274.084 207.251 274.018 205.74 273.913 204.26L272.564 204.356ZM273.716 208.189L270.098 206.526L269.533 207.754L273.151 209.418L273.716 208.189ZM270.098 206.526L266.48 204.862L265.915 206.091L269.533 207.754L270.098 206.526ZM272.807 203.787L269.385 206.619L270.246 207.661L273.669 204.829L272.807 203.787ZM270.232 190.449C270.309 190.734 270.386 191.021 270.46 191.309L271.769 190.97C271.693 190.676 271.615 190.384 271.536 190.093L270.232 190.449ZM270.46 191.309C270.846 192.796 271.187 194.325 271.482 195.895L272.811 195.645C272.51 194.046 272.162 192.487 271.769 190.97L270.46 191.309ZM289.461 177.648L303.354 158.836L302.266 158.033L288.374 176.845L289.461 177.648ZM303.229 158.965L314.227 150.282L313.389 149.221L302.391 157.904L303.229 158.965ZM314.153 150.333C315.344 149.627 316.046 148.381 316.38 146.887C316.712 145.394 316.694 143.585 316.391 141.619C315.786 137.684 314.017 132.975 311.366 128.582C306.099 119.851 297.101 112.014 286.448 114.507L286.756 115.823C296.508 113.541 305.02 120.681 310.208 129.28C312.786 133.552 314.481 138.095 315.055 141.825C315.343 143.692 315.344 145.319 315.06 146.593C314.776 147.866 314.226 148.718 313.464 149.17L314.153 150.333ZM273.413 124.26L254.6 133.956L255.22 135.158L274.032 125.462L273.413 124.26ZM234.055 148.337C234.772 148.674 235.495 149.029 236.223 149.402L236.84 148.198C236.097 147.818 235.36 147.457 234.629 147.114L234.055 148.337ZM236.223 149.402C236.889 149.742 237.558 150.098 238.23 150.47L238.885 149.287C238.2 148.908 237.518 148.545 236.84 148.198L236.223 149.402ZM254.496 134.022L236.117 148.265L236.946 149.334L255.324 135.091L254.496 134.022ZM286.196 114.625L274.619 123.34L275.432 124.421L287.009 115.705L286.196 114.625ZM274.619 123.34L273.316 124.321L274.129 125.401L275.432 124.421L274.619 123.34ZM271.531 191.672L287.018 179.587L286.186 178.521L270.699 190.606L271.531 191.672ZM287.018 179.587L289.333 177.78L288.502 176.714L286.186 178.521L287.018 179.587ZM274.963 124.554C275.237 124.579 275.519 124.61 275.808 124.646L275.979 123.305C275.675 123.266 275.377 123.234 275.087 123.207L274.963 124.554ZM275.808 124.646C280.751 125.278 287.702 127.659 293.226 132.901C298.725 138.12 302.855 146.216 302.135 158.394L303.485 158.474C304.227 145.909 299.954 137.422 294.156 131.92C288.383 126.441 281.145 123.965 275.979 123.305L275.808 124.646ZM270.212 177.759L270.88 183.547L272.224 183.392L271.555 177.603L270.212 177.759ZM286.694 171.811L286.116 167.036L284.773 167.198L285.352 171.974L286.694 171.811ZM281.525 176.357L286.446 172.42L285.601 171.365L280.681 175.301L281.525 176.357ZM279.852 170.664L280.431 175.903L281.775 175.754L281.196 170.516L279.852 170.664ZM271.974 183.997L276.75 180.177L275.905 179.121L271.13 182.942L271.974 183.997ZM276.75 180.177L281.525 176.357L280.681 175.301L275.905 179.121L276.75 180.177ZM274.934 174.444L275.658 179.741L276.997 179.558L276.274 174.261L274.934 174.444ZM55.8077 329.62C62.4416 337.954 67.2706 346.631 69.5853 353.873C70.7433 357.496 71.2602 360.724 71.0838 363.353C70.9075 365.978 70.0475 367.938 68.5192 369.155L69.3612 370.213C71.2832 368.683 72.2406 366.305 72.4327 363.443C72.6246 360.585 72.0609 357.178 70.8731 353.461C68.4962 346.025 63.5731 337.205 56.8656 328.778L55.8077 329.62ZM68.5192 369.155C66.9899 370.372 64.8336 370.793 62.1533 370.407C59.4735 370.02 56.3425 368.834 52.9724 366.937C46.2359 363.145 38.6677 356.584 32.0397 348.257L30.9819 349.098C37.6954 357.533 45.3915 364.221 52.3092 368.115C55.7663 370.061 59.0598 371.327 61.9603 371.745C64.8604 372.163 67.4403 371.742 69.3612 370.213L68.5192 369.155ZM32.0397 348.257C25.4089 339.926 20.9425 331.525 18.9854 324.562C18.0066 321.08 17.6648 317.99 17.9692 315.464C18.273 312.943 19.2123 311.026 20.761 309.793L19.919 308.736C18.0174 310.249 16.9602 312.536 16.6269 315.302C16.2944 318.062 16.6751 321.339 17.6838 324.928C19.702 332.108 24.2713 340.667 30.9819 349.098L32.0397 348.257ZM20.761 309.793C22.3071 308.563 24.3894 308.089 26.9232 308.377C29.4625 308.665 32.4092 309.717 35.596 311.478C41.9674 314.999 49.1765 321.288 55.8077 329.62L56.8656 328.778C50.1554 320.347 42.8164 313.923 36.25 310.295C32.9679 308.481 29.8483 307.348 27.0759 307.033C24.2979 306.717 21.8232 307.22 19.919 308.736L20.761 309.793ZM61.9197 325.037C70.3737 335.625 76.1208 346.945 78.5376 356.559C79.7462 361.366 80.1142 365.716 79.5947 369.32C79.0758 372.919 77.6797 375.733 75.3936 377.558L76.2372 378.615C78.8648 376.517 80.3801 373.347 80.9329 369.512C81.4851 365.682 81.0851 361.147 79.8488 356.229C77.3759 346.392 71.5255 334.9 62.9762 324.193L61.9197 325.037ZM66.8994 321.237C77.3689 333.448 83.8015 346.523 86.1549 357.979C88.5134 369.459 86.7564 379.176 81.0665 384.865L82.0225 385.821C88.1727 379.671 89.881 369.398 87.4792 357.707C85.0723 345.991 78.5189 332.712 67.9258 320.357L66.8994 321.237ZM81.192 384.767C74.6083 388.79 64.8703 387.974 54.0155 382.962C43.1948 377.965 31.4297 368.866 20.9481 356.64L19.9217 357.52C30.5028 369.862 42.4176 379.095 53.4487 384.189C64.4456 389.267 74.731 390.299 81.897 385.92L81.192 384.767ZM20.9481 356.64C10.4773 344.427 4.40635 331.817 2.5528 320.921C0.697806 310.016 3.0729 300.928 9.33886 295.556L8.45886 294.53C1.706 300.319 -0.682169 309.966 1.21993 321.148C3.12347 332.338 9.32996 345.166 19.9217 357.52L20.9481 356.64ZM9.30198 295.585C15.7022 290.831 24.7716 291.037 34.9946 295.6C45.2016 300.157 56.4114 309.004 66.8994 321.237L67.9258 320.357C57.3511 308.022 45.988 299.027 35.5457 294.366C25.1195 289.712 15.4633 289.324 8.49574 294.5L9.30198 295.585ZM8.37214 295.467L19.8133 309.688L20.8667 308.841L9.42558 294.619L8.37214 295.467ZM203.43 199.167C201.816 196.493 197.568 191.613 189.76 188.893L189.316 190.169C196.789 192.774 200.8 197.426 202.273 199.866L203.43 199.167ZM224.577 181.762L202.436 198.982L203.267 200.05L225.408 182.829L224.577 181.762ZM296.282 140.856C298.524 144.608 297.665 149.03 294.667 150.822L295.361 151.983C299.165 149.709 299.961 144.377 297.442 140.162L296.282 140.856ZM294.667 150.822C293.244 151.672 291.158 151.516 289.023 150.554C286.912 149.603 284.933 147.937 283.824 146.08L282.663 146.774C283.934 148.9 286.14 150.738 288.468 151.787C290.773 152.825 293.382 153.165 295.361 151.983L294.667 150.822ZM283.824 146.08C281.559 142.29 282.198 138.031 285.165 136.258L284.472 135.098C280.636 137.389 280.167 142.596 282.663 146.774L283.824 146.08ZM285.165 136.258C286.595 135.404 288.755 135.531 290.961 136.46C293.143 137.38 295.179 139.01 296.282 140.856L297.442 140.162C296.165 138.024 293.88 136.223 291.486 135.215C289.115 134.216 286.443 133.919 284.472 135.098L285.165 136.258ZM264.616 167.572C264.404 167.005 263.992 166.298 263.5 165.567C263.002 164.825 262.395 164.019 261.767 163.247C260.531 161.728 259.14 160.249 258.286 159.666L257.523 160.783C258.197 161.243 259.48 162.578 260.718 164.1C261.327 164.849 261.908 165.621 262.378 166.321C262.856 167.033 263.195 167.632 263.349 168.045L264.616 167.572ZM280.741 155.03C280.532 153.937 279.95 152.27 278.905 150.706C277.857 149.14 276.308 147.629 274.147 146.955L273.745 148.246C275.52 148.799 276.844 150.057 277.781 151.458C278.72 152.862 279.236 154.359 279.413 155.284L280.741 155.03ZM254.919 135.233C265.926 135.079 275.924 141.615 282.357 150.219C288.807 158.846 291.523 169.339 288.295 176.984L289.54 177.51C293.034 169.237 290.031 158.227 283.439 149.41C276.83 140.57 266.462 133.719 254.901 133.881L254.919 135.233ZM258.323 160.756L274.364 148.132L273.528 147.069L257.487 159.693L258.323 160.756ZM279.659 154.625L263.565 167.277L264.4 168.34L280.494 155.688L279.659 154.625ZM31.1022 348.139L26.3009 351.781L27.1181 352.859L31.9194 349.216L31.1022 348.139ZM26.1822 352.743C34.6982 363.359 44.5671 371.807 53.5763 376.638C58.0798 379.053 62.3987 380.579 66.2467 381.001C70.0989 381.423 73.5277 380.74 76.1643 378.673L75.33 377.609C73.0511 379.396 70.0105 380.053 66.394 379.657C62.7733 379.26 58.6242 377.81 54.2152 375.446C45.3993 370.719 35.6648 362.403 27.2368 351.897L26.1822 352.743ZM76.2738 377.717L69.4668 369.26L68.4136 370.108L75.2205 378.565L76.2738 377.717ZM75.2205 378.565L81.0179 385.767L82.0711 384.92L76.2738 377.717L75.2205 378.565ZM26.3009 351.781L20.0264 356.542L20.8435 357.619L27.1181 352.859L26.3009 351.781ZM75.3936 377.558C75.3725 377.575 75.3513 377.592 75.33 377.609L76.1643 378.673C76.1887 378.653 76.213 378.634 76.2372 378.615L75.3936 377.558ZM27.2368 351.897C27.1824 351.829 27.128 351.761 27.0736 351.693L26.0171 352.537C26.072 352.606 26.1271 352.674 26.1822 352.743L27.2368 351.897ZM76.1666 378.671L76.2349 378.617L75.396 377.557L75.3277 377.611L76.1666 378.671ZM62.9764 324.193C62.9681 324.183 62.958 324.17 62.9504 324.161L61.8938 325.004C61.9034 325.016 61.9106 325.025 61.9195 325.036L62.9764 324.193ZM62.0135 324.044L55.9281 328.66L56.7452 329.737L62.8306 325.121L62.0135 324.044ZM67.004 320.258L62.0135 324.044L62.8306 325.121L67.8211 321.335L67.004 320.258ZM14.2689 301.722C18.863 298.054 26.4236 298.441 35.1535 302.58C43.8335 306.696 53.4444 314.431 61.894 325.004L62.9502 324.16C54.4001 313.461 44.6347 305.58 35.7327 301.359C26.8806 297.161 18.6535 296.491 13.4253 300.665L14.2689 301.722ZM61.8939 325.004L61.9197 325.037L62.9761 324.193L62.9503 324.16L61.8939 325.004ZM20.8667 308.841L14.3738 300.77L13.3203 301.617L19.8133 309.688L20.8667 308.841ZM14.3738 300.77L9.42558 294.619L8.37214 295.467L13.3203 301.617L14.3738 300.77ZM125.303 346.103C126.378 340.231 126.613 334.512 126.15 328.993L124.802 329.106C125.256 334.509 125.027 340.107 123.973 345.86L125.303 346.103ZM126.15 328.993C125.726 323.945 124.719 319.067 123.24 314.392L121.951 314.8C123.402 319.385 124.388 324.165 124.802 329.106L126.15 328.993ZM128.311 325.917L125.054 328.521L125.898 329.578L129.155 326.973L128.311 325.917ZM125.054 328.521L122.174 330.824L123.018 331.88L125.898 329.578L125.054 328.521ZM95.5257 275.601L145.285 235.999L144.443 234.942L94.6838 274.544L95.5257 275.601ZM145.291 234.947C136.337 227.643 126.693 222.354 118.128 219.758C109.608 217.176 101.962 217.204 97.2009 220.847L98.0226 221.921C102.244 218.69 109.324 218.502 117.735 221.052C126.101 223.588 135.592 228.78 144.436 235.994L145.291 234.947ZM150.441 230.168L144.443 234.942L145.285 235.999L151.283 231.226L150.441 230.168ZM144.436 235.994C159.061 247.924 171.821 265.301 174.851 285.16L176.188 284.956C173.091 264.666 160.084 247.014 145.291 234.947L144.436 235.994ZM129.155 326.973L133.014 323.889L132.17 322.832L128.311 325.917L129.155 326.973ZM133.262 323.272C132.907 320.592 132.277 317.794 131.229 315.194L129.975 315.7C130.97 318.167 131.577 320.849 131.922 323.449L133.262 323.272ZM153.473 305.802L151.429 307.436L152.274 308.492L154.318 306.858L153.473 305.802ZM151.184 308.073C151.843 312.115 152.222 316.486 151.646 319.367L152.972 319.632C153.6 316.489 153.179 311.903 152.519 307.856L151.184 308.073ZM133.296 335.084C133.649 332.748 133.913 328.179 133.262 323.272L131.922 323.449C132.555 328.222 132.294 332.662 131.96 334.883L133.296 335.084ZM151.429 307.436L148.124 310.079L148.968 311.135L152.274 308.492L151.429 307.436ZM150.711 305.448C150.876 306.287 151.037 307.169 151.184 308.073L152.519 307.856C152.369 306.936 152.206 306.039 152.038 305.187L150.711 305.448ZM135.39 320.259L132.17 322.832L133.014 323.889L136.234 321.315L135.39 320.259Z" fill="black"/>
</svg>
