<svg width="66" height="484" viewBox="0 0 66 484" fill="none" xmlns="http://www.w3.org/2000/svg">
<path d="M65 483.984H1.1L1.1 473.904H27.83V466.434L1.1 446.364V434.844L32.06 458.334L65 433.134V445.464L37.1 466.434V473.904H65V483.984ZM65.45 401.011C65.45 405.631 64.55 409.801 62.75 413.521C60.95 417.241 58.52 420.451 55.46 423.151C52.34 425.851 48.86 427.951 45.02 429.451C41.12 430.891 37.13 431.611 33.05 431.611C28.79 431.611 24.74 430.831 20.9 429.271C17 427.711 13.55 425.551 10.55 422.791C7.49 420.031 5.09 416.791 3.34999 413.071C1.55 409.291 0.649997 405.211 0.649997 400.831C0.649997 396.271 1.58 392.131 3.44 388.411C5.3 384.631 7.79 381.421 10.91 378.781C14.03 376.081 17.51 374.011 21.35 372.571C25.19 371.071 29.12 370.321 33.14 370.321C37.4 370.321 41.48 371.101 45.38 372.661C49.22 374.161 52.67 376.291 55.73 379.051C58.73 381.811 61.1 385.081 62.84 388.861C64.58 392.581 65.45 396.631 65.45 401.011ZM33.05 421.351C36.05 421.351 38.96 420.871 41.78 419.911C44.6 418.951 47.12 417.601 49.34 415.861C51.5 414.061 53.21 411.901 54.47 409.381C55.73 406.861 56.36 404.041 56.36 400.921C56.36 397.681 55.7 394.801 54.38 392.281C53.06 389.761 51.29 387.661 49.07 385.981C46.79 384.241 44.27 382.921 41.51 382.021C38.69 381.121 35.87 380.671 33.05 380.671C30.05 380.671 27.17 381.151 24.41 382.111C21.59 383.011 19.1 384.361 16.94 386.161C14.72 387.961 12.98 390.121 11.72 392.641C10.46 395.101 9.83 397.861 9.83 400.921C9.83 404.161 10.49 407.041 11.81 409.561C13.13 412.081 14.9 414.211 17.12 415.951C19.34 417.691 21.83 419.041 24.59 420.001C27.35 420.901 30.17 421.351 33.05 421.351ZM1.1 307.415H65V317.585H36.83V349.805H65V359.885H1.1V349.805H27.83V317.585H1.1V307.415ZM10.01 246.11L10.01 267.35H65V277.52H10.01V298.85H1.1L1.1 246.11H10.01ZM1.1 224.98L1.1 215.44L65 190.6V201.22L47.63 207.97V232.63L65 239.29V250L1.1 224.98ZM40.16 209.95L12.17 220.21L40.16 230.83V209.95ZM65 182.607H1.1V172.527H27.83V165.057L1.1 144.987V133.467L32.06 156.957L65 131.757V144.087L37.1 165.057V172.527H65V182.607ZM10.01 75.6024L10.01 96.8424H65V107.012H10.01V128.342H1.1L1.1 75.6024H10.01ZM65 67.0334H1.1V56.9534H24.68V42.6434C24.68 37.9634 25.52 34.0334 27.2 30.8534C28.82 27.6134 31.13 25.1834 34.13 23.5634C37.13 21.8834 40.67 21.0434 44.75 21.0434C48.59 21.0434 52.07 21.8534 55.19 23.4734C58.25 25.0934 60.65 27.4634 62.39 30.5834C64.13 33.7034 65 37.5134 65 42.0134V67.0334ZM56.63 56.9534V43.4534C56.63 40.6334 56.09 38.3234 55.01 36.5234C53.93 34.7234 52.49 33.4334 50.69 32.6534C48.83 31.8134 46.85 31.3934 44.75 31.3934C42.71 31.3934 40.79 31.7834 38.99 32.5634C37.19 33.2834 35.75 34.5434 34.67 36.3434C33.59 38.0834 33.05 40.4834 33.05 43.5434V56.9534H56.63ZM65 10.9634H1.19V0.793394H65V10.9634Z" fill="white" fill-opacity="0.5"/>
</svg>
