<svg width="72" height="652" viewBox="0 0 72 652" fill="none" xmlns="http://www.w3.org/2000/svg">
<path d="M60.3375 638.639H52.4062V634.336C52.4062 632.93 52.0687 631.861 51.3937 631.13C50.7187 630.399 49.7062 629.696 48.3562 629.021L44.475 627.249L0.0937468 651.633L0.0937468 641.171L34.7719 622.946L0.0937468 607.505V597.464L52.8281 621.764C55.5844 623.114 57.525 624.605 58.65 626.236C59.775 627.811 60.3375 629.977 60.3375 632.733V638.639ZM60 541.196H17.3062L49.7062 558.83V564.399L17.3062 582.118H60V591.568H0.0937468L0.0937468 581.443L36.7125 561.615L0.0937468 541.787L0.0937468 531.662H60V541.196ZM0.0937468 468.961H60V478.496H33.5906L33.5906 508.702H60V518.152H0.0937468V508.702H25.1531L25.1531 478.496H0.0937468L0.0937468 468.961ZM0.0937468 438.151V429.207L60 405.919V415.876L43.7156 422.204V445.322L60 451.566V461.607L0.0937468 438.151ZM36.7125 424.06L10.4719 433.679L36.7125 443.635V424.06ZM60 400.198L35.4469 385.011C34.3219 388.948 32.2125 392.014 29.1187 394.208C26.025 396.401 22.3687 397.498 18.15 397.498C14.7187 397.498 11.6531 396.683 8.95312 395.051C6.25312 393.364 4.11562 391.029 2.54062 388.048C0.909371 385.067 0.0937468 381.608 0.0937468 377.67L0.0937468 355.986H60V365.436H36.6281L36.6281 373.198C36.6281 373.536 36.6281 373.901 36.6281 374.295C36.6281 374.633 36.6281 374.97 36.6281 375.308L60 389.314V400.198ZM28.4437 376.658L28.4437 365.436H8.27812V376.404C8.27812 378.542 8.67187 380.483 9.45937 382.226C10.1906 383.97 11.2875 385.348 12.75 386.361C14.2125 387.317 16.0125 387.795 18.15 387.795C20.2875 387.795 22.1156 387.345 23.6344 386.445C25.1531 385.545 26.3344 384.279 27.1781 382.648C28.0219 380.961 28.4437 378.964 28.4437 376.658ZM71.3906 276.662H60L60 321.634H0.0937468V312.184H51.6469V285.437H0.0937468V275.903H51.6469V268.309H71.3906V276.662ZM60 258.26H0.0937468V248.81H46.6687L0.0937468 216.832L0.0937468 207.973H60V217.423H14.1844L60 249.064V258.26ZM8.44687 150.123L8.44687 170.036H60V179.57H8.44687V199.567H0.0937468L0.0937468 150.123H8.44687ZM0.0937468 130.314L0.0937468 121.37L60 98.0823V108.039L43.7156 114.367V137.485L60 143.729V153.77L0.0937468 130.314ZM36.7125 116.223L10.4719 125.842L36.7125 135.798V116.223ZM8.44687 52.2351L8.44687 72.1476H60V81.682H8.44687V101.679H0.0937468L0.0937468 52.2351H8.44687ZM0.0937468 32.4254V23.4817L60 0.19416V10.1504L43.7156 16.4785L43.7156 39.5973L60 45.841V55.8817L0.0937468 32.4254ZM36.7125 18.3348L10.4719 27.9535L36.7125 37.9098L36.7125 18.3348Z" fill="white" fill-opacity="0.5"/>
</svg>
